<?xml version="1.0" standalone="no"?>
<svg xmlns:xlink="http://www.w3.org/1999/xlink" id="wave" style="transform:rotate(180deg); transition: 0.3s" viewBox="0 0 1440 100" version="1.1" xmlns="http://www.w3.org/2000/svg"><defs><linearGradient id="sw-gradient-0" x1="0" x2="0" y1="1" y2="0"><stop stop-color="rgba(255, 249, 234, 1)" offset="0%"/><stop stop-color="rgba(233, 162, 9, 1)" offset="100%"/></linearGradient></defs><path style="transform:translate(0, 0px); opacity:1" fill="url(#sw-gradient-0)" d="M0,70L80,68.3C160,67,320,63,480,53.3C640,43,800,27,960,21.7C1120,17,1280,23,1440,31.7C1600,40,1760,50,1920,56.7C2080,63,2240,67,2400,63.3C2560,60,2720,50,2880,46.7C3040,43,3200,47,3360,45C3520,43,3680,37,3840,41.7C4000,47,4160,63,4320,63.3C4480,63,4640,47,4800,36.7C4960,27,5120,23,5280,20C5440,17,5600,13,5760,23.3C5920,33,6080,57,6240,55C6400,53,6560,27,6720,23.3C6880,20,7040,40,7200,50C7360,60,7520,60,7680,60C7840,60,8000,60,8160,51.7C8320,43,8480,27,8640,16.7C8800,7,8960,3,9120,5C9280,7,9440,13,9600,23.3C9760,33,9920,47,10080,58.3C10240,70,10400,80,10560,71.7C10720,63,10880,37,11040,25C11200,13,11360,17,11440,18.3L11520,20L11520,100L11440,100C11360,100,11200,100,11040,100C10880,100,10720,100,10560,100C10400,100,10240,100,10080,100C9920,100,9760,100,9600,100C9440,100,9280,100,9120,100C8960,100,8800,100,8640,100C8480,100,8320,100,8160,100C8000,100,7840,100,7680,100C7520,100,7360,100,7200,100C7040,100,6880,100,6720,100C6560,100,6400,100,6240,100C6080,100,5920,100,5760,100C5600,100,5440,100,5280,100C5120,100,4960,100,4800,100C4640,100,4480,100,4320,100C4160,100,4000,100,3840,100C3680,100,3520,100,3360,100C3200,100,3040,100,2880,100C2720,100,2560,100,2400,100C2240,100,2080,100,1920,100C1760,100,1600,100,1440,100C1280,100,1120,100,960,100C800,100,640,100,480,100C320,100,160,100,80,100L0,100Z"/></svg>